<svg width="26" height="29" viewBox="0 0 26 29" fill="none" xmlns="http://www.w3.org/2000/svg">
<g filter="url(#filter0_d_604_399)">
<path fill-rule="evenodd" clip-rule="evenodd" d="M5 3H8.5C9.05 3 9.5 3.45 9.5 4C9.5 5.25 9.7 6.45 10.07 7.57C10.18 7.92 10.1 8.31 9.82 8.59L7.62 10.79C9.06 13.62 11.38 15.93 14.21 17.38L16.41 15.18C16.61 14.99 16.86 14.89 17.12 14.89C17.22 14.89 17.33 14.9 17.43 14.94C18.55 15.31 19.76 15.51 21 15.51C21.55 15.51 22 15.96 22 16.51V20C22 20.55 21.55 21 21 21C11.61 21 4 13.39 4 4C4 3.45 4.45 3 5 3ZM7.54 5C7.6 5.89 7.75 6.76 7.99 7.59L6.79 8.79C6.38 7.59 6.12 6.32 6.03 5H7.54ZM17.4 17.02C18.25 17.26 19.12 17.41 20 17.47V18.96C18.68 18.87 17.41 18.61 16.2 18.21L17.4 17.02Z" fill="#F2726F"/>
</g>
<defs>
<filter id="filter0_d_604_399" x="-3" y="0" width="32" height="32" filterUnits="userSpaceOnUse" color-interpolation-filters="sRGB">
<feFlood flood-opacity="0" result="BackgroundImageFix"/>
<feColorMatrix in="SourceAlpha" type="matrix" values="0 0 0 0 0 0 0 0 0 0 0 0 0 0 0 0 0 0 127 0" result="hardAlpha"/>
<feOffset dy="4"/>
<feGaussianBlur stdDeviation="2"/>
<feComposite in2="hardAlpha" operator="out"/>
<feColorMatrix type="matrix" values="0 0 0 0 0 0 0 0 0 0 0 0 0 0 0 0 0 0 0.25 0"/>
<feBlend mode="normal" in2="BackgroundImageFix" result="effect1_dropShadow_604_399"/>
<feBlend mode="normal" in="SourceGraphic" in2="effect1_dropShadow_604_399" result="shape"/>
</filter>
</defs>
</svg>
